<svg width="16" height="16" viewBox="0 0 16 16" fill="none" xmlns="http://www.w3.org/2000/svg">
<path d="M9.11389 3.5L15.6583 12.6687C15.8806 12.9812 16 13.3656 16 13.7625V14.5C16 15.3281 15.4028 16 14.6667 16H1.33333C0.596944 16 0 15.3281 0 14.5V13.7625C0 13.3656 0.120222 12.9812 0.340833 12.6687L6.86111 3.5L5.52778 1.62469C5.19722 1.19344 5.28333 0.564063 5.66667 0.219157C6.05 -0.125843 6.60833 -0.0559052 6.89167 0.375314L8 1.89938L9.08333 0.375314C9.39167 -0.0559052 9.95 -0.125843 10.3083 0.219157C10.7167 0.564063 10.7778 1.19344 10.4472 1.62469L9.11389 3.5ZM11.3194 14L8 9.11563L4.68056 14H11.3194Z" fill="#51718B"/>
</svg>
