<svg width="57" height="43" viewBox="0 0 57 43" fill="none" xmlns="http://www.w3.org/2000/svg">
<path d="M55.5 5.75C55.5 6.08333 55.4167 6.5 55.25 7C55.1667 7.5 55.125 8 55.125 8.5C55.125 8.91667 55.1667 9.29167 55.25 9.625C55.4167 9.95833 55.75 10.125 56.25 10.125C54.8333 12.2917 53.375 14.5417 51.875 16.875C50.4583 19.125 49.125 21.4583 47.875 23.875C46.625 26.2083 45.5833 28.5417 44.75 30.875C43.9167 33.2083 43.4583 35.5 43.375 37.75C43.375 39.0833 42.7083 39.8333 41.375 40C40.125 40.1667 38.625 40.0833 36.875 39.75C35.2083 39.3333 33.5417 38.8333 31.875 38.25C30.2917 37.5833 29.125 37.0833 28.375 36.75C28.0417 36 27.7917 35.125 27.625 34.125C27.4583 33.125 27.3333 32.125 27.25 31.125C27.1667 30.0417 27.0833 29 27 28C27 26.9167 27 26 27 25.25C27.6667 24.3333 28.125 23.125 28.375 21.625C28.625 20.125 29 18.75 29.5 17.5C29.8333 16.6667 30 16.1667 30 16C30 15.75 30 15.625 30 15.625C30 15.5417 30.0417 15.4167 30.125 15.25C30.2083 15 30.4583 14.4583 30.875 13.625C31.0417 13.2083 31.0417 12.875 30.875 12.625C30.7083 12.2917 30.7083 12 30.875 11.75C31.0417 11.5833 31.25 11.4167 31.5 11.25C31.8333 11.0833 32.0417 10.9167 32.125 10.75C32.4583 10.25 32.5833 9.875 32.5 9.625C32.4167 9.375 32.5833 9 33 8.5C33.3333 8.08333 33.7917 7.54167 34.375 6.875C34.9583 6.125 35.25 5.41667 35.25 4.75C36.4167 4 37.5 3.20833 38.5 2.375C39.5833 1.54167 41.0417 0.916667 42.875 0.5C43.2917 0.75 44.0417 1.16667 45.125 1.75C46.2083 2.33333 47.4167 2.91667 48.75 3.5C50.0833 4 51.375 4.5 52.625 5C53.875 5.41667 54.8333 5.66667 55.5 5.75ZM27.375 9.875C26.125 12.2083 24.875 14.6667 23.625 17.25C22.375 19.75 21.2083 22.2917 20.125 24.875C19.125 27.375 18.2917 29.9167 17.625 32.5C16.9583 35 16.6667 37.4167 16.75 39.75C16.75 41.1667 16.125 42 14.875 42.25C13.7083 42.5 12.2917 42.5 10.625 42.25C9.04167 41.9167 7.45833 41.4583 5.875 40.875C4.29167 40.2917 3.125 39.8333 2.375 39.5C2.04167 38.75 1.75 37.875 1.5 36.875C1.33333 35.875 1.16667 34.8333 1 33.75C0.916667 32.5833 0.833333 31.4583 0.75 30.375C0.666667 29.2917 0.583333 28.3333 0.5 27.5C1.08333 26.5 1.45833 25.2083 1.625 23.625C1.79167 22.0417 2.08333 20.5833 2.5 19.25C2.75 18.3333 2.875 17.7917 2.875 17.625C2.875 17.375 2.875 17.25 2.875 17.25C2.875 17.1667 2.875 17 2.875 16.75C2.95833 16.5 3.16667 15.9167 3.5 15C3.66667 14.5833 3.66667 14.25 3.5 14C3.33333 13.6667 3.33333 13.3333 3.5 13C3.66667 12.8333 3.875 12.6667 4.125 12.5C4.375 12.25 4.54167 12.0417 4.625 11.875C4.875 11.2917 4.95833 10.875 4.875 10.625C4.79167 10.375 4.95833 10 5.375 9.5C5.625 9.08333 6 8.45833 6.5 7.625C7.08333 6.79167 7.33333 6.04167 7.25 5.375C8.41667 4.54167 9.41667 3.66667 10.25 2.75C11.1667 1.75 12.4583 1 14.125 0.5C14.5417 0.75 15.2917 1.16667 16.375 1.75C17.4583 2.25 18.625 2.75 19.875 3.25C21.2083 3.75 22.4583 4.20833 23.625 4.625C24.7917 5.04167 25.7083 5.29167 26.375 5.375C26.375 5.70833 26.3333 6.125 26.25 6.625C26.25 7.125 26.25 7.625 26.25 8.125C26.25 8.625 26.3333 9.04167 26.5 9.375C26.6667 9.70833 26.9583 9.875 27.375 9.875Z" fill="#51718B"/>
</svg>
