<svg width="93" height="93" viewBox="0 0 93 93" fill="none" xmlns="http://www.w3.org/2000/svg">
<path d="M58.125 46.5C54.91 46.5 52.3125 49.0975 52.3125 52.3125C52.3125 55.5275 54.91 58.125 58.125 58.125H75.5625C85.1895 58.125 93 65.7721 93 75.5625C93 85.1895 85.1895 93 75.5625 93H25.357C26.9373 91.2018 28.8627 88.8949 30.8063 86.3156C31.9506 84.7898 33.1313 83.1188 34.2574 81.375H75.5625C78.7775 81.375 81.375 78.7775 81.375 75.5625C81.375 72.3475 78.7775 69.75 75.5625 69.75H58.125C48.3346 69.75 40.524 61.9395 40.524 52.3125C40.524 42.5221 48.3346 34.875 58.125 34.875H65.7721C61.7941 29.335 58.125 22.7777 58.125 17.4375C58.125 7.80691 65.7721 0 75.5625 0C85.1895 0 93 7.80691 93 17.4375C93 29.0625 75.5625 46.5 75.5625 46.5H58.125ZM75.5625 23.25C78.7775 23.25 81.375 20.6525 81.375 17.4375C81.375 14.2279 78.7775 11.625 75.5625 11.625C72.3475 11.625 69.75 14.2279 69.75 17.4375C69.75 20.6525 72.3475 23.25 75.5625 23.25ZM21.4881 88.6043C21.4518 88.6406 21.4154 88.6769 21.3791 88.7133C20.598 89.6215 19.8896 90.4025 19.3084 91.0383C19.2357 91.1109 19.1631 91.1836 19.1086 91.2562C18.0732 92.3643 17.4375 93 17.4375 93C17.4375 93 0 75.5625 0 63.9375C0 54.1471 7.80691 46.3365 17.4375 46.3365C27.0645 46.3365 34.875 54.1471 34.875 63.9375C34.875 69.2777 31.2059 75.835 27.2279 81.375C25.0846 84.1359 23.1955 86.6244 21.4881 88.6043ZM17.274 69.75C20.6525 69.75 23.0865 67.1525 23.0865 63.9375C23.0865 60.7225 20.6525 58.125 17.274 58.125C14.2279 58.125 11.4615 60.7225 11.4615 63.9375C11.4615 67.1525 14.2279 69.75 17.274 69.75Z" fill="white"/>
</svg>
