<svg width="93" height="77" viewBox="0 0 93 77" fill="none" xmlns="http://www.w3.org/2000/svg">
<path d="M75.5625 3.21429C75.5625 1.70955 74.2729 0.5 72.6562 0.5H61.0312C59.4146 0.5 58.125 1.70955 58.125 3.21429V11.3571H75.5698L75.5625 3.21429ZM11.6032 22.2313C11.1418 38.1437 0.635742 41.6045 0 63.6071V71.0714C0 74.0571 2.61562 76.5 5.8125 76.5H29.0625C32.2594 76.5 34.875 74.0571 34.875 71.0714V16.7857H17.4157C14.2152 16.7857 11.6886 19.2455 11.6032 22.2313ZM81.3932 22.2313C81.3023 19.2455 78.7775 16.7857 75.5807 16.7857H58.125V71.0714C58.125 74.0571 60.7406 76.5 63.9375 76.5H87.1875C90.3844 76.5 93 74.0571 93 71.0714V63.6071C92.3643 41.6045 81.8654 38.1437 81.3932 22.2313ZM40.6875 43.9286H52.3125V16.7857H40.6875V43.9286ZM31.9688 0.5H20.3438C18.7271 0.5 17.4375 1.70955 17.4375 3.21429L17.4302 11.3571H34.875V3.21429C34.875 1.70955 33.5854 0.5 31.9688 0.5Z" fill="white"/>
</svg>
