<svg width="93" height="93" viewBox="0 0 93 93" fill="none" xmlns="http://www.w3.org/2000/svg">
<path d="M52.3125 46.5C52.3125 49.715 49.715 52.3125 46.5 52.3125C43.285 52.3125 40.6875 49.715 40.6875 46.5C40.6875 43.285 43.285 40.6875 46.5 40.6875C49.715 40.6875 52.3125 43.285 52.3125 46.5ZM0 46.5C0 20.816 20.816 0 46.5 0C72.184 0 93 20.816 93 46.5C93 72.184 72.184 93 46.5 93C20.816 93 0 72.184 0 46.5ZM59.0514 55.7092L69.1324 29.4984C70.4947 25.8111 67.0254 22.5053 63.5016 23.8676L37.2908 33.9486C35.7469 34.5299 34.5299 35.7469 33.9486 37.2908L23.8676 63.5016C22.5053 67.0254 25.8111 70.4947 29.4984 69.1324L55.7092 59.0514C57.2531 58.4701 58.4701 57.2531 59.0514 55.7092Z" fill="white"/>
</svg>
