<svg xmlns:xlink="http://www.w3.org/1999/xlink" width="18" height="27" viewBox="0 0 28 37" fill="none" xmlns="http://www.w3.org/2000/svg"> <path d="M28 9.25H18.6667V0L28 9.25ZM18.6667 11.5625H28V33.5312C28 35.447 26.433 37 24.5 37H3.5C1.56698 37 0 35.4463 0 33.5312V3.46875C0 1.55299 1.56698 0 3.5 0H16.3333L16.3336 9.25C16.3333 10.5291 17.376 11.5625 18.6667 11.5625ZM18.5938 21.3184L15.75 24.1439V16.7656C15.75 15.8081 14.9661 15.0312 14 15.0312C13.0339 15.0312 12.25 15.8117 12.25 16.7656V24.1439L9.34062 21.3184C9.06354 20.9787 8.61875 20.8125 8.16667 20.8125C7.71458 20.8125 7.27125 20.9787 6.92927 21.3184C6.24568 21.9958 6.24568 23.0932 6.92927 23.7711L12.7626 29.5523C13.4462 30.2298 14.5534 30.2298 15.2374 29.5523L21.0707 23.7711C21.7543 23.0936 21.7543 21.9962 21.0707 21.3184C20.3871 20.6405 19.2792 20.6463 18.5938 21.3184Z" fill="#FBB152"></path> </svg>