<svg width="95" height="93" viewBox="0 0 95 93" fill="none" xmlns="http://www.w3.org/2000/svg">
<path d="M54.1137 20.3438L92.9714 73.6371C94.2908 75.4535 95 77.6877 95 79.9945V84.2812C95 89.0947 91.454 93 87.0833 93H7.91667C3.54436 93 0 89.0947 0 84.2812V79.9945C0 77.6877 0.71382 75.4535 2.0237 73.6371L40.7378 20.3438L32.8212 9.4435C30.8585 6.93686 31.3698 3.27862 33.6458 1.27385C35.9219 -0.731461 39.237 -0.324949 40.9193 2.18151L47.5 11.0401L53.9323 2.18151C55.763 -0.324949 59.0781 -0.731461 61.2057 1.27385C63.6302 3.27862 63.9931 6.93686 62.0304 9.4435L54.1137 20.3438ZM67.2092 81.375L47.5 52.9846L27.7908 81.375H67.2092Z" fill="white"/>
</svg>
