<svg width="764" height="900" viewBox="0 0 764 900" fill="none" xmlns="http://www.w3.org/2000/svg">
<path d="M381.6 347.2C286.8 347.2 210 424 210 518.8C210 613.6 286.8 690.5 381.6 690.5C476.4 690.5 553.2 613.7 553.2 518.9C553.2 424.1 476.4 347.2 381.6 347.2ZM381.6 671.3C297.4 671.3 229.2 603 229.2 518.9C229.2 434.8 297.5 366.5 381.6 366.5C465.7 366.5 534 434.8 534 518.9C534 603 465.8 671.3 381.6 671.3ZM343.4 530.5C343.4 542.1 334 551.5 322.4 551.5C310.8 551.5 301.4 542.1 301.4 530.5C301.4 518.9 310.8 509.5 322.4 509.5C334 509.5 343.4 518.9 343.4 530.5ZM461.8 530.5C461.8 542.1 452.4 551.5 440.8 551.5C429.2 551.5 419.8 542.1 419.8 530.5C419.8 518.9 429.2 509.5 440.8 509.5C452.4 509.5 461.8 518.9 461.8 530.5ZM480.7 486.7L500.1 465.6H457.1C435.6 450.9 409.6 442.3 381.5 442.3C353.4 442.3 327.6 450.9 306.1 465.6H263L282.4 486.7C270.6 497.6 263.2 513.1 263.2 530.5C263.2 563.2 289.7 589.7 322.4 589.7C337.9 589.7 352.1 583.7 362.6 573.9L381.6 594.6L400.6 574C411.2 583.8 425.3 589.8 440.8 589.8C473.5 589.8 500 563.3 500 530.6C500.1 513.1 492.6 497.6 480.7 486.7ZM322.4 570.6C300.3 570.6 282.3 552.7 282.3 530.5C282.3 508.3 300.2 490.4 322.4 490.4C344.5 490.4 362.5 508.3 362.5 530.5C362.5 552.7 344.5 570.6 322.4 570.6ZM381.6 529.3C381.6 502.9 362.4 480.3 337.1 470.6C350.8 464.9 365.8 461.7 381.6 461.7C397.4 461.7 412.4 464.9 426.1 470.6C400.8 480.3 381.6 503 381.6 529.3ZM440.8 570.6C418.7 570.6 400.7 552.7 400.7 530.5C400.7 508.3 418.6 490.4 440.8 490.4C463 490.4 480.9 508.3 480.9 530.5C480.9 552.7 463 570.6 440.8 570.6Z" fill="black"/>
<path d="M286.1 708.6C286.1 708.6 265.3 692.6 227.9 688.2C190.8 683.9 163.1 703.6 163.1 703.6C163.1 703.6 188.1 713.9 226.1 717.7C264.1 721.6 286.1 708.6 286.1 708.6Z" fill="black"/>
<path d="M227.799 675.8C227.799 675.8 209.099 656.5 174.299 643.2C139.499 629.9 105.699 638.1 105.699 638.1C105.699 638.1 127.199 658.5 164.199 672.6C201.299 686.8 227.799 675.8 227.799 675.8Z" fill="black"/>
<path d="M172.2 630.1C172.2 630.1 161.3 603.5 132.3 576.7C103.3 549.9 67 545.3 67 545.3C67 545.3 80.1 574 111 602.5C141.9 631 172.2 630.1 172.2 630.1Z" fill="black"/>
<path d="M161.3 579C161.3 579 157.7 550.3 136.7 516.9C115.7 483.5 82 469.7 82 469.7C82 469.7 87.2 501 109.6 536.6C132 572.2 161.3 579 161.3 579Z" fill="black"/>
<path d="M162.699 510.5C162.699 510.5 161.699 481.2 144.099 445.4C126.499 409.7 94.6992 392.6 94.6992 392.6C94.6992 392.6 97.0992 424.7 115.799 462.8C134.499 500.9 162.699 510.5 162.699 510.5Z" fill="black"/>
<path d="M245.8 656.3C245.8 656.3 237.1 634.5 213.6 612.4C190.1 590.3 160.5 586.3 160.5 586.3C160.5 586.3 171 609.8 196 633.3C221.1 656.8 245.8 656.3 245.8 656.3Z" fill="black"/>
<path d="M305 688.8C305 688.8 292.9 677 270.9 668.4C248.9 659.8 228 664 228 664C228 664 241.8 676.5 265.3 685.6C288.7 694.8 305 688.8 305 688.8Z" fill="black"/>
<path d="M362.601 700.5C362.601 700.5 350.001 695.3 331.301 696C312.601 696.6 298.701 706.9 298.701 706.9C298.701 706.9 312.701 712 332.701 711.4C352.601 710.6 362.601 700.5 362.601 700.5Z" fill="black"/>
<path d="M219.9 603.5C219.9 603.5 215.8 580.3 197.4 553.8C179 527.4 150.9 517.4 150.9 517.4C150.9 517.4 156.4 542.7 176 570.9C195.7 599.1 219.9 603.5 219.9 603.5Z" fill="black"/>
<path d="M196.7 532.7C196.7 532.7 201.2 509.1 193.6 477.5C186 445.9 163.8 426.5 163.8 426.5C163.8 426.5 159.9 452.5 167.9 486.2C176.1 519.9 196.7 532.7 196.7 532.7Z" fill="black"/>
<path d="M477.1 708.6C477.1 708.6 497.9 692.6 535.3 688.2C572.4 683.9 600.1 703.6 600.1 703.6C600.1 703.6 575.1 713.9 537.1 717.7C499.1 721.6 477.1 708.6 477.1 708.6Z" fill="black"/>
<path d="M535.4 675.8C535.4 675.8 554.1 656.5 588.9 643.2C623.7 629.9 657.5 638.1 657.5 638.1C657.5 638.1 636.1 658.4 599 672.6C561.9 686.8 535.4 675.8 535.4 675.8Z" fill="black"/>
<path d="M591.1 630.1C591.1 630.1 602 603.5 631 576.7C660 549.9 696.3 545.3 696.3 545.3C696.3 545.3 683.2 574 652.3 602.5C621.4 631 591.1 630.1 591.1 630.1Z" fill="black"/>
<path d="M602 579C602 579 605.6 550.3 626.6 516.9C647.6 483.5 681.3 469.7 681.3 469.7C681.3 469.7 676.1 501 653.7 536.6C631.3 572.2 602 579 602 579Z" fill="black"/>
<path d="M600.6 510.5C600.6 510.5 601.6 481.2 619.2 445.4C636.8 409.7 668.6 392.6 668.6 392.6C668.6 392.6 666.2 424.7 647.5 462.8C628.7 500.9 600.6 510.5 600.6 510.5Z" fill="black"/>
<path d="M517.398 656.3C517.398 656.3 526.098 634.5 549.598 612.4C573.098 590.3 602.698 586.3 602.698 586.3C602.698 586.3 592.198 609.8 567.198 633.3C542.198 656.8 517.398 656.3 517.398 656.3Z" fill="black"/>
<path d="M458.199 688.8C458.199 688.8 470.299 677 492.299 668.4C514.299 659.8 535.199 664 535.199 664C535.199 664 521.399 676.5 497.899 685.6C474.599 694.8 458.199 688.8 458.199 688.8Z" fill="black"/>
<path d="M400.699 700.5C400.699 700.5 413.299 695.3 431.999 696C450.699 696.6 464.599 706.9 464.599 706.9C464.599 706.9 450.599 712 430.599 711.4C410.699 710.6 400.699 700.5 400.699 700.5Z" fill="black"/>
<path d="M543.398 603.5C543.398 603.5 547.498 580.3 565.898 553.8C584.298 527.4 612.398 517.4 612.398 517.4C612.398 517.4 606.898 542.7 587.298 570.9C567.598 599.1 543.398 603.5 543.398 603.5Z" fill="black"/>
<path d="M566.499 532.7C566.499 532.7 561.999 509.1 569.599 477.5C577.199 445.9 599.399 426.5 599.399 426.5C599.399 426.5 603.299 452.5 595.299 486.2C587.199 519.9 566.499 532.7 566.499 532.7Z" fill="black"/>
<path d="M381.6 718.4C386.846 718.4 391.1 714.147 391.1 708.9C391.1 703.653 386.846 699.4 381.6 699.4C376.353 699.4 372.1 703.653 372.1 708.9C372.1 714.147 376.353 718.4 381.6 718.4Z" fill="black"/>
<path d="M193.199 767.9V759.2H179.799V811H193.199V779.9C193.199 774.3 196.799 771.5 202.399 771.5H209.699V759.1H203.499C198.599 759.2 194.299 761.8 193.199 767.9Z" fill="black"/>
<path d="M228.9 759.2H215.6V811H228.9V759.2Z" fill="black"/>
<path d="M265.6 758.3C259.6 758.3 254.2 760.3 249.9 763.6V759.2H236.6V826.3H249.9V806.7C254.2 810 259.7 812 265.6 812C280.4 812 292.4 800 292.4 785.2C292.4 770.3 280.4 758.3 265.6 758.3ZM264.4 799.7C256.4 799.7 249.8 793.2 249.8 785.1C249.8 777.1 256.3 770.5 264.4 770.5C272.4 770.5 279 777 279 785.1C279 793.2 272.4 799.7 264.4 799.7Z" fill="black"/>
<path d="M523.998 780.6L516.198 778.5C511.098 777.2 509.098 775.6 509.098 772.9C509.098 770.3 511.898 768.4 515.898 768.4C519.698 768.4 522.698 770.9 522.698 774.1V774.4H534.998V774.1C534.998 764.7 527.298 758.4 515.898 758.4C504.598 758.4 496.398 764.7 496.398 773.4C496.398 780.2 500.898 785.3 508.698 787.4L516.098 789.4C521.798 791 523.898 792.7 523.898 795.8C523.898 799.1 520.898 801.3 516.298 801.3C511.598 801.3 508.398 798.3 508.398 793.9V793.6H495.398V793.9C495.398 804.5 503.998 812 516.198 812C527.998 812 536.598 804.7 536.598 794.7C536.698 789.8 534.498 783.4 523.998 780.6Z" fill="black"/>
<path d="M339.699 763.6C335.399 760.3 329.899 758.3 323.999 758.3C309.199 758.3 297.199 770.3 297.199 785.1C297.199 799.9 309.199 811.9 323.999 811.9C329.999 811.9 335.399 809.9 339.699 806.6V811H352.999V759.2H339.699V763.6ZM325.099 799.7C317.099 799.7 310.499 793.2 310.499 785.1C310.499 777.1 316.999 770.5 325.099 770.5C333.099 770.5 339.699 777 339.699 785.1C339.699 793.2 333.099 799.7 325.099 799.7Z" fill="black"/>
<path d="M401.1 763.6C396.8 760.3 391.3 758.3 385.4 758.3C370.6 758.3 358.6 770.3 358.6 785.1C358.6 799.9 370.6 811.9 385.4 811.9C391.4 811.9 396.8 809.9 401.1 806.6V811H414.4V740.7H401.1V763.6ZM386.6 799.7C378.6 799.7 372 793.2 372 785.1C372 777.1 378.5 770.5 386.6 770.5C394.6 770.5 401.2 777 401.2 785.1C401.1 793.2 394.6 799.7 386.6 799.7Z" fill="black"/>
<path d="M489.599 759.2H476.299V811H489.599V759.2Z" fill="black"/>
<path d="M567.499 758.3C552.699 758.3 540.699 770.3 540.699 785.1C540.699 799.9 552.699 811.9 567.499 811.9C582.299 811.9 594.299 799.9 594.299 785.1C594.299 770.3 582.299 758.3 567.499 758.3ZM567.499 799.7C559.499 799.7 552.899 793.2 552.899 785.1C552.899 777.1 559.399 770.5 567.499 770.5C575.599 770.5 582.099 777 582.099 785.1C582.099 793.2 575.499 799.7 567.499 799.7Z" fill="black"/>
<path d="M613.798 767.9V759.2H600.398V811H613.798V779.9C613.798 774.3 617.398 771.5 622.998 771.5H630.298V759.1H624.098C619.198 759.2 614.998 761.8 613.798 767.9Z" fill="black"/>
<path d="M186.299 740.8H135.199V752.6H154.099V811H167.399V752.6H186.299V740.8Z" fill="black"/>
<path d="M444.9 796.8L433 759.2H419L436.8 811H452.9L470.8 759.2H456.8L444.9 796.8Z" fill="black"/>
<path d="M222.2 755C226.673 755 230.3 751.374 230.3 746.9C230.3 742.427 226.673 738.8 222.2 738.8C217.726 738.8 214.1 742.427 214.1 746.9C214.1 751.374 217.726 755 222.2 755Z" fill="black"/>
<path d="M482.998 755C487.472 755 491.098 751.374 491.098 746.9C491.098 742.427 487.472 738.8 482.998 738.8C478.525 738.8 474.898 742.427 474.898 746.9C474.898 751.374 478.525 755 482.998 755Z" fill="black"/>
<path d="M187.5 157.3H165.2V223.2H147.9V157.3H125.6V141.4H187.6V157.3H187.5Z" fill="black"/>
<path d="M218.1 165.5V181H209.4C203.1 181 200 184 200 190.4V223.3H183.6V165.5H198.8V176.3C200.1 168.6 205.3 165.5 210.8 165.5H218.1Z" fill="black"/>
<path d="M220.1 194.4C220.1 177.4 232.1 163.9 248.7 163.9C256.9 163.9 263 166.5 266.8 170.4V165.5H282V223.3H266.8V216.3C263.1 221.3 257.6 225 248.2 225C232 224.9 220.1 211.4 220.1 194.4ZM266.9 194.4C266.9 185.2 260.1 179.1 251.7 179.1C243.3 179.1 236.5 185.2 236.5 194.4C236.5 203.6 243.3 209.7 251.7 209.7C260.1 209.7 266.9 203.6 266.9 194.4Z" fill="black"/>
<path d="M288.5 165.5H306L314.8 196C315.9 199.5 316.4 201.8 317 204.5C317.6 201.8 318.2 199.5 319.2 196L328 165.5H345.5L326.3 223.3H307.6L288.5 165.5Z" fill="black"/>
<path d="M404.299 198.3H361.399C362.099 206.3 368.099 211.4 375.199 211.4C381.899 211.4 386.799 207.9 388.199 202.6H403.899C401.099 216.7 390.699 224.9 375.299 224.9C357.199 224.9 345.299 211.6 345.299 194.4C345.299 176.4 358.999 163.9 375.199 163.9C393.399 163.9 404.399 175 404.399 195.7V198.3H404.299ZM362.299 186H389.099C387.499 180.3 382.899 176.5 375.399 176.5C369.399 176.5 364.399 180.1 362.299 186Z" fill="black"/>
<path d="M411.799 141.4H428.199V223.2H411.799V141.4Z" fill="black"/>
<path d="M438.1 141.4H454.5V223.2H438.1V141.4Z" fill="black"/>
<path d="M520.5 198.3H477.6C478.3 206.3 484.3 211.4 491.4 211.4C498.1 211.4 503 207.9 504.4 202.6H520.1C517.3 216.7 506.9 224.9 491.5 224.9C473.4 224.9 461.5 211.6 461.5 194.4C461.5 176.4 475.2 163.9 491.4 163.9C509.6 163.9 520.6 175 520.6 195.7V198.3H520.5ZM478.4 186H505.2C503.6 180.3 499 176.5 491.5 176.5C485.6 176.5 480.5 180.1 478.4 186Z" fill="black"/>
<path d="M562.5 165.5V181H553.8C547.5 181 544.4 184 544.4 190.4V223.3H528V165.5H543.2V176.3C544.5 168.6 549.7 165.5 555.2 165.5H562.5Z" fill="black"/>
<path d="M566.9 204.4H583.5C583.5 208.4 586 211.1 589.9 211.1C593.8 211.1 596.1 209.2 596.1 206.3C596.1 203.1 593.5 201.4 588.3 199.9L580.7 197.7C573.1 195.5 567.8 190.1 567.8 181.7C567.8 171.1 577.4 164 589.3 164C602.9 164 610.3 171.7 610.3 182.5H594.9C594.9 179.7 592.7 177 589.2 177C585.9 177 583.7 178.9 583.7 181.1C583.7 183.8 585.8 185.1 590.4 186.4L598.8 188.7C606.5 190.8 611.9 196.1 611.9 204.7C611.9 215.6 603.4 225 589.7 225C577.1 224.9 566.9 217.1 566.9 204.4Z" fill="black"/>
<path d="M618.3 168H619.8C623.8 168 627.4 165.9 628.1 159.9C627.4 160.3 626.7 160.4 625.8 160.4C620.1 160.4 615.6 156.1 615.6 150.1C615.6 144.4 620.2 139.8 625.9 139.8C633.3 139.8 637.4 146.6 637.4 155.5C637.4 169.8 630.5 176.4 620.8 176.4H618.3V168V168Z" fill="black"/>
<path d="M199.699 287.5C199.699 262.4 218.399 244.9 240.999 244.9C262.999 244.9 276.799 257.1 279.899 276.5H262.199C259.599 266.9 251.899 261.1 240.899 261.1C227.699 261.1 216.899 271.9 216.899 287.5C216.899 303.2 227.699 313.9 240.899 313.9C251.799 313.9 259.599 308.3 262.199 298.3H280.199C276.699 317.9 261.299 330 240.899 330C218.099 330.1 199.699 312.7 199.699 287.5Z" fill="black"/>
<path d="M287.5 246.6H303.9V278.5C306.5 273.7 313 269 322.3 269C333.8 269 341.8 277.1 341.8 290.3V328.5H325.4V295.1C325.4 288.3 320.8 283.6 314.6 283.6C308.4 283.6 303.8 288.3 303.8 295.1V328.5H287.4V246.6H287.5Z" fill="black"/>
<path d="M348.1 299.6C348.1 282.6 360.5 269.1 379.3 269.1C398.1 269.1 410.5 282.7 410.5 299.6C410.5 316.6 398.1 330.1 379.3 330.1C360.5 330.1 348.1 316.5 348.1 299.6ZM394.2 299.6C394.2 290.4 387.8 284.3 379.4 284.3C371 284.3 364.6 290.4 364.6 299.6C364.6 308.8 371 314.9 379.4 314.9C387.7 314.9 394.2 308.8 394.2 299.6Z" fill="black"/>
<path d="M414.9 253C414.9 247.3 419.5 242.7 425.2 242.7C430.9 242.7 435.5 247.3 435.5 253C435.5 258.7 430.9 263.3 425.2 263.3C419.5 263.3 414.9 258.8 414.9 253ZM417 270.7H433.4V328.5H417V270.7Z" fill="black"/>
<path d="M440 299.6C440 282.6 452.3 269.1 470.5 269.1C488.7 269.1 498.6 278.8 500.3 292.4H483.2C481.6 287.6 477.5 284.3 470.5 284.3C463.1 284.3 456.4 290.4 456.4 299.6C456.4 308.8 463.1 314.9 470.5 314.9C477.4 314.9 481.4 311.9 483.2 306.8H500.3C497.6 320.9 488.1 330.1 470.5 330.1C452.3 330.1 440 316.5 440 299.6Z" fill="black"/>
<path d="M562.7 303.4H519.8C520.5 311.4 526.5 316.5 533.6 316.5C540.3 316.5 545.2 313 546.6 307.7H562.2C559.4 321.8 549 330 533.6 330C515.5 330 503.6 316.7 503.6 299.5C503.6 281.5 517.3 269 533.5 269C551.7 269 562.7 280.1 562.7 300.8V303.4ZM520.6 291.2H547.4C545.8 285.5 541.2 281.7 533.7 281.7C527.7 281.7 522.7 285.3 520.6 291.2Z" fill="black"/>
<path d="M557 251.2H566.8V253.3H563V264.3H560.8V253.3H557V251.2Z" fill="black"/>
<path d="M574.999 261L571.399 251.2H568.699V264.3H570.899V257C570.899 256.3 570.799 255.7 570.799 255L574.199 264.3H575.799L579.199 255C579.099 255.7 579.099 256.3 579.099 257V264.3H581.299V251.2H578.599L574.999 261Z" fill="black"/>
<path d="M297.499 115.3L315.299 98.5C319.899 94.2 321.999 91.9 321.999 87.4C321.999 82.6 318.299 79.6 313.299 79.6C307.599 79.6 304.399 83.1 303.999 87.8H297.199C297.499 79.6 303.499 73.2 313.499 73.2C323.299 73.2 328.999 79 328.999 87.1C328.999 92.8 326.299 97.2 320.499 102.4L307.399 114.2H329.399V120.8H297.399V115.3H297.499Z" fill="black"/>
<path d="M336.699 97.5C336.699 83.7 346.799 73 360.599 73C374.399 73 384.499 83.6 384.499 97.5C384.499 111.3 374.399 122 360.599 122C346.799 122 336.699 111.4 336.699 97.5ZM377.399 97.5C377.399 86.4 369.699 79.5 360.599 79.5C351.499 79.5 343.799 86.4 343.799 97.5C343.799 108.6 351.499 115.5 360.599 115.5C369.799 115.5 377.399 108.7 377.399 97.5Z" fill="black"/>
<path d="M391.499 115.3L409.299 98.5C413.899 94.2 415.999 91.9 415.999 87.4C415.999 82.6 412.299 79.6 407.299 79.6C401.599 79.6 398.399 83.1 397.999 87.8H391.199C391.499 79.6 397.499 73.2 407.499 73.2C417.299 73.2 422.999 79 422.999 87.1C422.999 92.8 420.299 97.2 414.499 102.4L401.399 114.2H423.399V120.8H391.399V115.3H391.499Z" fill="black"/>
<path d="M433.099 115.3L450.899 98.5C455.499 94.2 457.599 91.9 457.599 87.4C457.599 82.6 453.899 79.6 448.899 79.6C443.199 79.6 439.999 83.1 439.599 87.8H432.799C433.099 79.6 439.099 73.2 449.099 73.2C458.899 73.2 464.599 79 464.599 87.1C464.599 92.8 461.899 97.2 456.099 102.4L442.999 114.2H464.999V120.8H432.999V115.3H433.099Z" fill="black"/>
</svg>
