<svg id="Layer_1" data-name="Layer 1" xmlns="http://www.w3.org/2000/svg" viewBox="0 0 3419.41 1586.52"><defs><style>.cls-1{fill:#34e0a1;}</style></defs><title>Tripadvisor_Logo_circle-green_vertical-lockup_registered_RGB</title><path d="M3517.77,1560.27a24.85,24.85,0,1,0,24.85,24.85A24.87,24.87,0,0,0,3517.77,1560.27Zm0,45.79a20.94,20.94,0,1,1,20.94-20.94A21,21,0,0,1,3517.77,1606.06Zm8.06-25.16c0-4.53-3.23-7.21-7.91-7.21h-8v22.62h3.91v-8.21h4.23l4.11,8.21h4.2l-4.53-9A6.52,6.52,0,0,0,3525.83,1580.9Zm-8.11,3.74h-3.84v-7.49h3.84c2.62,0,4.2,1.32,4.2,3.75S3520.34,1584.64,3517.72,1584.64ZM523,1308.76v-60.1H430.86v357.62H523V1391.85C523,1353,548,1334,586.79,1334h50.42v-85.29H594.12C560.41,1248.66,531.09,1266.25,523,1308.76Zm200.53-201.57c-31.51,0-55.69,24.92-55.69,56.43a55.7,55.7,0,1,0,111.4,0C779.27,1132.11,755.08,1107.19,723.56,1107.19Zm-46,499.09h91.93V1248.66H677.6Zm529.95-178.81c0,102.09-82.76,184.85-184.85,184.85A177.9,177.9,0,0,1,914.19,1576v135.23H822.26V1248.66h91.93v30.24a177.9,177.9,0,0,1,108.51-36.28C1124.79,1242.62,1207.55,1325.38,1207.55,1427.47Zm-92.53,0a100.42,100.42,0,1,0-100.41,100.42A100.41,100.41,0,0,0,1115,1427.47Zm1690.76-31.37-53.64-14.72c-35.29-9.18-49-20-49-38.66,0-18.19,19.32-30.89,47-30.89,26.34,0,47,17.26,47,39.29v2h84.74v-2c0-64.9-52.93-108.5-131.72-108.5-78.05,0-134.7,43.57-134.7,103.6,0,46.71,31,81.89,85,96.52l51.38,14c39,10.8,53.54,22.8,53.54,44.27,0,22.67-21,37.9-52.19,37.9-32.55,0-54.42-20.58-54.42-51.2v-2h-90v2c0,73.37,59.07,124.61,143.64,124.61,81.5,0,140.65-50,140.65-119C2893,1459.57,2877.83,1415.32,2805.78,1396.1Zm-1272-147.44h91.93v357.62h-91.93V1576a177.91,177.91,0,0,1-108.52,36.28c-102.09,0-184.85-82.76-184.85-184.85s82.76-184.85,184.85-184.85a177.91,177.91,0,0,1,108.52,36.28Zm0,178.82v0a100.42,100.42,0,1,0-100.42,100.43A100.42,100.42,0,0,0,1533.76,1427.46Zm424-306.11h91.93v484.91h-91.93V1576a177.91,177.91,0,0,1-108.52,36.28c-102.09,0-184.85-82.76-184.85-184.85s82.76-184.85,184.85-184.85a177.91,177.91,0,0,1,108.52,36.28Zm0,306.1a100.42,100.42,0,1,0-100.42,100.42A100.41,100.41,0,0,0,1957.72,1427.47Zm518.9,178.81h91.93V1248.66h-91.93Zm46-499.09c-31.52,0-55.7,24.92-55.7,56.43a55.7,55.7,0,1,0,111.4,0C2578.29,1132.11,2554.1,1107.19,2522.59,1107.19Zm767.83,320.28c0,102.09-82.76,184.85-184.85,184.85s-184.85-82.76-184.85-184.85,82.76-184.85,184.85-184.85S3290.42,1325.38,3290.42,1427.47Zm-84.43,0a100.42,100.42,0,1,0-100.42,100.42A100.41,100.41,0,0,0,3206,1427.47Zm-2730-306.1H123.21v82H253.77v402.88h91.61V1203.4H475.94Zm1783.85,387L2178,1248.66h-96.58l122.69,357.62h110.64l123.41-357.62h-96.58Zm1165.38-199.59v-60.1H3333v357.62h92.18V1391.85c0-38.84,24.92-57.9,63.76-57.9h50.42v-85.29h-43.09C3462.54,1248.66,3433.23,1266.25,3425.17,1308.76Z" transform="translate(-123.21 -124.75)"/><circle class="cls-1" cx="1708.04" cy="470.28" r="470.28"/><path d="M2121.68,503.25l56.77-61.76H2052.61a393.1,393.1,0,0,0-442.34,0H1484.1l56.77,61.76A173.48,173.48,0,1,0,1775.66,758.7l55.62,60.51,55.58-60.47a172.83,172.83,0,0,0,117.86,46.2c95.81,0,173.55-77.67,173.55-173.48A173.05,173.05,0,0,0,2121.68,503.25ZM1657.76,748.86a117.4,117.4,0,1,1,117.4-117.4A117.4,117.4,0,0,1,1657.76,748.86Zm173.52-120.78c0-77.26-56.2-143.55-130.31-171.9a338.82,338.82,0,0,1,260.59,0C1887.46,484.54,1831.28,550.83,1831.28,628.08Zm173.44,120.78a117.4,117.4,0,1,1,117.4-117.4A117.4,117.4,0,0,1,2004.72,748.86Zm0-178.94a61.55,61.55,0,1,0,61.55,61.54A61.54,61.54,0,0,0,2004.72,569.92Zm-285.41,61.54a61.55,61.55,0,1,1-61.55-61.54A61.55,61.55,0,0,1,1719.31,631.46Z" transform="translate(-123.21 -124.75)"/></svg>