<svg id="Layer_1" data-name="Layer 1" xmlns="http://www.w3.org/2000/svg" viewBox="0 0 3419.41 1972.08"><defs><style>.cls-1{fill:#34e0a1;}</style></defs><title>Tripadvisor_Logo_circle-green_vertical-lockup-small_registered_RGB</title><path d="M3560.72,1987.24a24.85,24.85,0,1,0,24.85,24.85A24.87,24.87,0,0,0,3560.72,1987.24Zm0,45.79a20.94,20.94,0,1,1,20.94-20.94A21,21,0,0,1,3560.72,2033Zm8.06-25.17c0-4.52-3.23-7.2-7.91-7.2h-7.95v22.62h3.91v-8.21h4.23l4.11,8.21h4.2l-4.53-9A6.53,6.53,0,0,0,3568.78,2007.86Zm-8.11,3.75h-3.84v-7.5h3.84c2.62,0,4.2,1.33,4.2,3.75S3563.29,2011.61,3560.67,2011.61ZM566,1735.72v-60.09H473.81v357.62H566V1818.82c0-38.85,24.92-57.9,63.76-57.9h50.42v-85.29H637.07C603.36,1675.63,574,1693.22,566,1735.72Zm200.53-201.56c-31.51,0-55.69,24.92-55.69,56.43a55.7,55.7,0,1,0,111.4,0C822.22,1559.08,798,1534.16,766.51,1534.16Zm-46,499.09h91.93V1675.63H720.55Zm530-178.81c0,102.09-82.76,184.85-184.85,184.85A177.85,177.85,0,0,1,957.14,2003v135.24H865.21V1675.63h91.93v30.24a177.9,177.9,0,0,1,108.51-36.28C1167.74,1669.59,1250.5,1752.35,1250.5,1854.44Zm-92.53,0a100.42,100.42,0,1,0-100.41,100.41A100.42,100.42,0,0,0,1158,1854.44Zm1690.76-31.38-53.64-14.71c-35.29-9.19-49.05-20-49.05-38.66,0-18.19,19.32-30.89,47-30.89,26.34,0,47,17.26,47,39.29v2h84.74v-2c0-64.9-52.93-108.5-131.72-108.5-78.05,0-134.7,43.57-134.7,103.6,0,46.71,31,81.89,84.95,96.51l51.38,14c39,10.8,53.54,22.8,53.54,44.27,0,22.67-21,37.89-52.19,37.89-32.55,0-54.42-20.57-54.42-51.19v-2h-90v2c0,73.37,59.07,124.61,143.64,124.61,81.5,0,140.65-50,140.65-119C2935.91,1886.54,2920.78,1842.28,2848.73,1823.06Zm-1272-147.43h91.93v357.62h-91.93V2003a177.85,177.85,0,0,1-108.52,36.29c-102.09,0-184.85-82.76-184.85-184.85s82.76-184.85,184.85-184.85a177.91,177.91,0,0,1,108.52,36.28Zm0,178.82v0a100.42,100.42,0,1,0-100.42,100.42A100.42,100.42,0,0,0,1576.71,1854.43Zm424-306.11h91.93v484.91h-91.93V2003a177.91,177.91,0,0,1-108.52,36.28c-102.09,0-184.85-82.76-184.85-184.85s82.76-184.85,184.85-184.85a177.91,177.91,0,0,1,108.52,36.28Zm0,306.1a100.42,100.42,0,1,0-100.42,100.41A100.42,100.42,0,0,0,2000.67,1854.44Zm518.9,178.81h91.93V1675.63h-91.93Zm46-499.09c-31.52,0-55.7,24.92-55.7,56.43a55.7,55.7,0,1,0,111.4,0C2621.24,1559.08,2597.05,1534.16,2565.54,1534.16Zm767.83,320.28c0,102.09-82.76,184.85-184.85,184.85s-184.85-82.76-184.85-184.85,82.76-184.85,184.85-184.85S3333.37,1752.35,3333.37,1854.44Zm-84.43,0a100.42,100.42,0,1,0-100.42,100.41A100.42,100.42,0,0,0,3248.94,1854.44Zm-2730-306.1H166.16v82H296.72v402.88h91.61V1630.37H518.89Zm1783.85,387L2221,1675.63h-96.58l122.69,357.62H2357.7l123.41-357.62h-96.58Zm1165.38-199.6v-60.09h-92.18v357.62h92.18V1818.82c0-38.85,24.92-57.9,63.76-57.9h50.42v-85.29h-43.09C3505.49,1675.63,3476.18,1693.22,3468.12,1735.72Z" transform="translate(-166.16 -166.16)"/><circle class="cls-1" cx="1708.16" cy="634.84" r="634.84"/><path d="M2266.39,677.1,2343,593.72H2173.14a530.68,530.68,0,0,0-597.12,0H1405.71l76.63,83.38A233.59,233.59,0,0,0,1406,850.17c0,129.34,104.85,234.19,234.18,234.19a233.35,233.35,0,0,0,159.16-62.42l75.07,81.68,75-81.64a233.3,233.3,0,0,0,159.11,62.38c129.33,0,234.27-104.85,234.27-234.19A233.62,233.62,0,0,0,2266.39,677.1Zm-626.26,331.56a158.49,158.49,0,1,1,158.49-158.49A158.48,158.48,0,0,1,1640.13,1008.66Zm234.23-163c0-104.29-75.85-193.78-175.89-232.05a457.3,457.3,0,0,1,351.76,0C1950.21,651.84,1874.36,741.32,1874.36,845.61Zm234.14,163A158.49,158.49,0,1,1,2267,850.17,158.49,158.49,0,0,1,2108.5,1008.66Zm0-241.57a83.08,83.08,0,1,0,83.08,83.08A83.08,83.08,0,0,0,2108.5,767.09Zm-385.29,83.08a83.08,83.08,0,1,1-83.08-83.08A83.07,83.07,0,0,1,1723.21,850.17Z" transform="translate(-166.16 -166.16)"/></svg>